<svg id="Icon_ionic-ios-star" data-name="Icon ionic-ios-star" xmlns="http://www.w3.org/2000/svg" width="18.167" height="16.869" viewBox="0 0 18.167 16.869">
  <path id="Icon_ionic-ios-star-2" data-name="Icon ionic-ios-star" d="M19.728,9.214H13.763L11.95,3.8a.657.657,0,0,0-1.233,0L8.9,9.214H2.9a.651.651,0,0,0-.649.649.477.477,0,0,0,.012.109.623.623,0,0,0,.272.458l4.9,3.455-1.882,5.47a.651.651,0,0,0,.223.73.627.627,0,0,0,.365.158.8.8,0,0,0,.406-.146l4.785-3.41,4.785,3.41a.76.76,0,0,0,.406.146.583.583,0,0,0,.361-.158.643.643,0,0,0,.223-.73l-1.882-5.47L20.089,10.4l.118-.1a.68.68,0,0,0,.211-.434A.687.687,0,0,0,19.728,9.214Z" transform="translate(-2.25 -3.375)" fill="#2a9d8f"/>
</svg>
