<svg xmlns="http://www.w3.org/2000/svg" width="16.5" height="14.049" viewBox="0 0 16.5 14.049">
  <path id="Path_245" data-name="Path 245" d="M21,13.476a1.572,1.572,0,1,0-2.1,1.478v2.124a1.11,1.11,0,0,1-1.067,1.067h-4.3V14.954a1.572,1.572,0,1,0-1.063,0v3.191H7.1V14.954a1.572,1.572,0,1,0-1.063,0V22.4a1.572,1.572,0,1,0,1.063,0V19.212h5.365V22.4a1.572,1.572,0,1,0,1.063,0V19.212h4.3a2.157,2.157,0,0,0,2.133-2.141h0V14.954A1.571,1.571,0,0,0,21,13.476Zm-8-.708a.708.708,0,1,1-.708.708A.708.708,0,0,1,13,12.769Zm-6.428,0a.708.708,0,1,1-.708.708A.708.708,0,0,1,6.572,12.769Zm0,11.819a.708.708,0,1,1,.707-.708A.708.708,0,0,1,6.572,24.588Zm6.428,0a.708.708,0,1,1,.707-.708A.708.708,0,0,1,13,24.588Zm6.428-11.819a.708.708,0,1,1-.708.708A.708.708,0,0,1,19.428,12.769Z" transform="translate(-4.75 -11.654)" fill="#2a9d8f" stroke="#2a9d8f" stroke-width="0.5"/>
</svg>
