<svg id="Layer_1" data-name="Layer 1" xmlns="http://www.w3.org/2000/svg" viewBox="0 0 368 156"><defs><style>.cls-1{fill:#fff;}.cls-2{fill:#2a9d8f;}.cls-3{fill:#eba400;}</style></defs><title>Untitled-1</title><ellipse class="cls-1" cx="182" cy="70" rx="72" ry="70"/><rect class="cls-1" y="83" width="368" height="73" rx="12.75"/><path class="cls-2" d="M550.11,439.24c.15,10.14,5,19,15.62,23.74,10,4.51,19.82,3.37,28.69-3.31,3.57-2.68,3.92-6.32,1.12-8.24s-4.73-.17-6.73,1.34a17.66,17.66,0,0,1-16,3.18c-7.09-2-11.3-7.06-12.42-14.17-1.25-7.87.47-15.1,7.68-19.67,6.51-4.13,13.3-3.85,19.71.43,3,2,6.17,3.67,8.63,0,2.6-3.89-.61-6.1-3.58-7.83-9.33-5.41-19-6-28.56-.93S550.22,427.1,550.11,439.24Z" transform="translate(-316 -317)"/><path class="cls-2" d="M433.88,429.29c-1.38-2.84-2.35-6.08-6.25-5.14s-3.87,4.25-3.9,7.24c-.1,8.82-.13,17.66,0,26.48.05,3.14.16,6.77,4.78,6.7,4.44-.06,4.78-3.26,4.76-6.67,0-5.5-.18-11,0-16.49.25-6.09,3.49-9.19,9-9.12,5.23.06,7.91,3,8.09,9.21.17,5.82,0,11.66.1,17.49,0,3.17,1.23,5.81,4.78,5.8S460,462,460,458.92c.06-6.83.25-13.67,0-20.49-.43-9.94-7-15.84-16.16-14.79C439.8,424.1,436.75,426.36,433.88,429.29Z" transform="translate(-316 -317)"/><path class="cls-2" d="M472.5,444.79c0,2.82-.09,5.65,0,8.47.33,9.29,6.38,13.85,15.39,11.63,2.48-.61,5.25-1.29,4.89-4.55-.33-3-2.63-3.87-5.52-3.66-3.91.28-5.29-2-5.25-5.57,0-4.49.26-9-.07-13.46-.31-4.09,1-5.83,5.21-5.28,2.87.36,5.7-.37,5.77-3.84s-2.71-4.33-5.62-4c-4,.46-5.81-.72-5.37-5.08.34-3.27-.94-6.29-4.78-6.22s-4.73,3.14-4.64,6.42c.08,2.6-.19,4.36-3.19,5.69s-3.05,5,0,6.2c3.56,1.39,3.14,3.68,3.16,6.25C472.51,440.13,472.5,442.46,472.5,444.79Z" transform="translate(-316 -317)"/><path class="cls-2" d="M660.52,431.11c-.16-3.71-.6-7-4.6-7-2.76,0-4.6,1.91-4.62,4.9,0,10.31-.06,20.63,0,31,0,2.95,1.68,4.69,4.72,4.59s4.31-2.1,4.32-5c0-3.33-.06-6.66,0-10,.21-7.84,2.22-14.48,11-16.76A4.18,4.18,0,0,0,674.6,427c-1.05-3.1-3.59-3.53-6.53-2.6C664.82,425.46,663.28,428.4,660.52,431.11Z" transform="translate(-316 -317)"/><path class="cls-2" d="M325.12,438.18c0-7,.05-14,0-21-.05-4,1.79-5.79,5.76-5.73,6.83.1,13.67-.11,20.49.15,8.42.32,14.41,5,16.32,12.22,2.06,7.82-.66,14.48-8.27,18.92-2.7,1.57-2.14,2.77-.72,4.56,2.38,3,4.72,6,7.11,9,1.93,2.41,3.32,5.1.31,7.37s-5.67,1-7.79-1.73c-3.08-3.93-6.13-7.89-9.18-11.84-2.59-3.35-9.54-5.22-13.4-3.74-1.77.67-1.39,2.06-1.42,3.3-.06,3.33,0,6.66,0,10s-1.58,5-4.91,4.94-4.25-2.07-4.25-4.95C325.13,452.5,325.12,445.34,325.12,438.18ZM344,420.33c-9.75-.05-9.75-.05-9.74,9.95,0,1.49,0,3,0,4.48-.06,1.74.43,2.86,2.46,2.82,4.64-.09,9.31.23,13.91-.23,5.33-.54,8-4,7.79-9.12-.18-4.7-3.14-7.51-8.45-7.88C348,420.22,346,420.33,344,420.33Z" transform="translate(-316 -317)"/><path class="cls-2" d="M550.11,439.24c.11-12.14,4.65-20.47,14.14-25.48s19.23-4.48,28.56.93c3,1.73,6.18,3.94,3.58,7.83-2.46,3.69-5.59,2.06-8.63,0-6.41-4.28-13.2-4.56-19.71-.43-7.21,4.57-8.93,11.8-7.68,19.67,1.12,7.11,5.33,12.18,12.42,14.17a17.66,17.66,0,0,0,16-3.18c2-1.51,4.05-3.18,6.73-1.34s2.45,5.56-1.12,8.24c-8.87,6.68-18.68,7.82-28.69,3.31C555.11,458.2,550.26,449.38,550.11,439.24Z" transform="translate(-316 -317)"/><path class="cls-2" d="M542.16,444.49c0,11.78-9.39,21-21.43,21-11.74,0-21.26-9.25-21.25-20.62,0-12.05,9.49-21.3,21.75-21.22A20.81,20.81,0,0,1,542.16,444.49ZM509,444.31c0,7.34,4.86,12.87,11.58,13.06S533,451.86,533.06,445c.08-7.14-5.49-13.24-12.17-13.33C514,431.55,509.08,436.76,509,444.31Z" transform="translate(-316 -317)"/><path class="cls-2" d="M376.24,444.68c-.07-14.78,13-24.75,26.16-20,7.05,2.55,13,11,12.47,18.24-.2,3.08-1.94,4.76-5.25,4.72-6.65-.07-13.3.1-19.95,0-4-.08-4.18,1.62-2.66,4.56,2.52,4.85,9,6.95,14.8,4.69a15.09,15.09,0,0,0,3.5-1.87c2.14-1.58,4.27-2.24,6.09.19,2.05,2.74.22,4.61-1.86,6.25-8.76,6.91-22.88,4.9-29.38-4.13A20.5,20.5,0,0,1,376.24,444.68Zm19.2-3.09c2.33,0,4.66-.08,7,0,3.1.13,3.31-1.51,2.41-3.78-1.31-3.28-3.52-5.68-7.14-6.29-3.89-.66-7.27.38-9.68,3.69-1.18,1.61-2.6,3.45-1.61,5.43.87,1.74,3,.77,4.55.9S393.94,441.59,395.44,441.59Z" transform="translate(-316 -317)"/><path class="cls-2" d="M640.36,449c0,3.49,0,7,0,10.48,0,2.09-.44,4.15-2.68,4.86s-4.51.51-5.65-1.81c-1.36-2.79-2.53-.87-3.72-.08a16.78,16.78,0,0,1-15.22,2.05c-5.46-1.76-8.59-5.9-8.72-11.44s2.82-9.72,8.26-11.75a27,27,0,0,1,15.19-.81c1,.21,2.35,1.28,3.19.07s.22-2.56-.35-3.79a7.38,7.38,0,0,0-6.71-4.43,26.15,26.15,0,0,0-9.39.71c-2.67.83-5.71,1.22-6.71-2.12-1.1-3.72,2-4.7,4.81-5.56a32.05,32.05,0,0,1,17.18-.6c5.65,1.36,10,6.91,10.37,13.25.2,3.64,0,7.31,0,11ZM621,458.54c6,.06,10-3.05,10.72-8.2.27-1.81-.13-3-1.84-3.47-3.36-.83-6.72-1.8-10.27-.89-3.74,1-6.66,2.84-6.21,7.07S617.2,458.51,621,458.54Z" transform="translate(-316 -317)"/><path class="cls-2" d="M433.88,429.29c2.87-2.93,5.92-5.19,9.92-5.65,9.11-1.05,15.73,4.85,16.16,14.79.29,6.82.1,13.66,0,20.49,0,3.12-1.12,5.86-4.71,5.87s-4.75-2.63-4.78-5.8c-.06-5.83.07-11.67-.1-17.49-.18-6.25-2.86-9.15-8.09-9.21-5.49-.07-8.73,3-9,9.12-.23,5.49-.08,11,0,16.49,0,3.41-.32,6.61-4.76,6.67-4.62.07-4.73-3.56-4.78-6.7-.15-8.82-.12-17.66,0-26.48,0-3,.1-6.31,3.9-7.24S432.5,426.45,433.88,429.29Z" transform="translate(-316 -317)"/><path class="cls-2" d="M472.5,444.79c0-2.33,0-4.66,0-7,0-2.57.4-4.86-3.16-6.25-3.05-1.19-3.05-4.85,0-6.2s3.27-3.09,3.19-5.69c-.09-3.28.82-6.34,4.64-6.42s5.12,2.95,4.78,6.22c-.44,4.36,1.39,5.54,5.37,5.08,2.91-.34,5.69.49,5.62,4s-2.9,4.2-5.77,3.84c-4.24-.55-5.52,1.19-5.21,5.28.33,4.47.11,9,.07,13.46,0,3.59,1.34,5.85,5.25,5.57,2.89-.21,5.19.66,5.52,3.66.36,3.26-2.41,3.94-4.89,4.55-9,2.22-15.06-2.34-15.39-11.63C472.41,450.44,472.5,447.61,472.5,444.79Z" transform="translate(-316 -317)"/><path class="cls-2" d="M660.52,431.11c2.76-2.71,4.3-5.65,7.55-6.67,2.94-.93,5.48-.5,6.53,2.6a4.18,4.18,0,0,1-3.17,5.78c-8.82,2.28-10.83,8.92-11,16.76-.09,3.33,0,6.66,0,10,0,2.89-1.2,4.88-4.32,5s-4.7-1.64-4.72-4.59c-.08-10.32-.06-20.64,0-31,0-3,1.86-4.91,4.62-4.9C659.92,424.13,660.36,427.4,660.52,431.11Z" transform="translate(-316 -317)"/><path class="cls-3" d="M549,386.67c-1.71.44-3-.57-4.06-2.67a56.48,56.48,0,0,0-15.15-19.43c-1.94-1.54-2.14-3-.71-5.06,7.7-11,4.72-11.57,14.71-2,6.08,5.82,10.33,12.88,13.6,20.6,2.84,6.7,2.88,6.74-4.3,8.05C551.9,386.4,550.74,386.46,549,386.67Z" transform="translate(-316 -317)"/><path class="cls-3" d="M498,343.75c0-6.71,0-6.61,6.6-5.73A67,67,0,0,1,529,346c2.22,1.25,3.21,2.05,1.45,4.8-5.79,9-5.66,9.18-15.41,4.57a58.48,58.48,0,0,0-10.79-3.69C498,350.06,498,350.11,498,343.75Z" transform="translate(-316 -317)"/><path class="cls-3" d="M534,381.48c-4.84,4.87-11.11,7.65-16.75,11.34-8.21,5.37-16.64,10.39-24.89,15.69-3,1.9-6,2.36-7.77-.77-1.94-3.38-.11-5.85,3.44-7.35,13.61-5.75,27.17-11.66,40.78-17.44a38,38,0,0,1,5.23-1.42Z" transform="translate(-316 -317)"/><path class="cls-3" d="M494,344.74c1.43,4.22-1.18,5.57-5.52,5.47a45.32,45.32,0,0,0-17.1,2.85c-3.77,1.42-4.59-1.59-5.84-3.78-1.64-2.88,1.1-3.31,2.68-4.17A59.33,59.33,0,0,1,488,338.57C494,337.68,494,337.76,494,344.74Z" transform="translate(-316 -317)"/><path class="cls-3" d="M440.88,374.26a57.47,57.47,0,0,1,18.5-23.47c1.7-1.29,2.87-.91,3.39.83.47,1.55,3.87,3.27.64,4.83C454.56,360.72,447.8,367.47,440.88,374.26Z" transform="translate(-316 -317)"/><path class="cls-3" d="M534,381.53l.93-.78.3.51-1.27.22Z" transform="translate(-316 -317)"/></svg>