<svg xmlns="http://www.w3.org/2000/svg" width="14" height="15.999" viewBox="0 0 14 15.999">
  <path id="Icon_awesome-snowflake" data-name="Icon awesome-snowflake" d="M13.757,10.787,12.7,10.177l.812-.219a.483.483,0,0,0,.341-.591L13.729,8.9a.483.483,0,0,0-.591-.341l-2.212.594L8.929,8l1.994-1.153,2.212.594a.483.483,0,0,0,.591-.341l.125-.466a.483.483,0,0,0-.341-.591L12.7,5.825l1.056-.609a.485.485,0,0,0,.178-.659l-.484-.837a.485.485,0,0,0-.659-.178l-1.056.609.219-.812a.483.483,0,0,0-.341-.591l-.466-.125a.483.483,0,0,0-.591.341L9.96,5.175,8,6.306V3.884L9.676,2.206a.5.5,0,0,0,0-.706l-.353-.353a.5.5,0,0,0-.706,0L8,1.762V.5A.5.5,0,0,0,7.5,0h-1A.5.5,0,0,0,6,.5V1.762l-.616-.616a.5.5,0,0,0-.706,0L4.32,1.5a.5.5,0,0,0,0,.706L6,3.884V6.306L4.036,5.175,3.442,2.962a.483.483,0,0,0-.591-.341l-.466.125a.483.483,0,0,0-.341.591l.219.812L1.208,3.54a.482.482,0,0,0-.659.178l-.484.834a.482.482,0,0,0,.178.659L1.3,5.821.486,6.04a.485.485,0,0,0-.344.594L.267,7.1a.483.483,0,0,0,.591.341L3.07,6.846,5.064,8,3.07,9.152.858,8.559A.483.483,0,0,0,.267,8.9l-.125.466a.483.483,0,0,0,.341.591l.812.219-1.056.612a.485.485,0,0,0-.178.659l.484.837a.485.485,0,0,0,.659.178l1.056-.609-.219.812a.483.483,0,0,0,.341.591l.466.125a.483.483,0,0,0,.591-.341l.594-2.212L6,9.7v2.422L4.317,13.8a.5.5,0,0,0,0,.706l.353.353a.5.5,0,0,0,.706,0l.616-.616V15.5a.5.5,0,0,0,.5.5h1a.5.5,0,0,0,.5-.5V14.236l.616.616a.5.5,0,0,0,.706,0l.353-.353a.5.5,0,0,0,0-.706L8,12.115V9.693L9.96,10.824l.594,2.212a.483.483,0,0,0,.591.341l.466-.125a.483.483,0,0,0,.341-.591l-.219-.812,1.056.609a.482.482,0,0,0,.659-.178l.484-.837A.477.477,0,0,0,13.757,10.787Z" transform="translate(0.002)" fill="#2a9d8f"/>
</svg>
