<svg xmlns="http://www.w3.org/2000/svg" width="14.577" height="12.755" viewBox="0 0 14.577 12.755">
  <path id="Icon_awesome-suitcase" data-name="Icon awesome-suitcase" d="M3.644,15h7.288V3.617A1.367,1.367,0,0,0,9.566,2.25H5.011A1.367,1.367,0,0,0,3.644,3.617ZM5.466,4.072H9.111v.911H5.466ZM14.577,6.35v7.288A1.367,1.367,0,0,1,13.21,15H11.844V4.983H13.21A1.367,1.367,0,0,1,14.577,6.35ZM2.733,15H1.367A1.367,1.367,0,0,1,0,13.638V6.35A1.367,1.367,0,0,1,1.367,4.983H2.733Z" transform="translate(0 -2.25)" fill="#2a9d8f"/>
</svg>
